<svg xmlns:xlink="http://www.w3.org/1999/xlink" xmlns="http://www.w3.org/2000/svg" width="63" height="63" viewBox="0 0 63 63" fill="none">
<g clip-path="url(#clip0_1400_910)">
<path d="M31.499 47.2466C40.1975 47.2466 47.249 40.1951 47.249 31.4966C47.249 22.7981 40.1975 15.7466 31.499 15.7466C22.8005 15.7466 15.749 22.7981 15.749 31.4966C15.749 40.1951 22.8005 47.2466 31.499 47.2466Z" fill="white"/>
<path d="M17.8591 39.3751L4.22138 15.7539C1.45611 20.5419 0.000190779 25.9736 1.87479e-08 31.5028C-0.000190741 37.032 1.45536 42.4638 4.22029 47.252C6.98523 52.0402 10.9621 56.0161 15.751 58.7799C20.5399 61.5436 25.972 62.9978 31.5012 62.9963L45.1389 39.3751V39.371C43.7576 41.7664 41.7699 43.7558 39.3757 45.1391C36.9815 46.5224 34.2653 47.2509 31.5002 47.2513C28.7351 47.2517 26.0186 46.5241 23.624 45.1414C21.2295 43.7588 19.2411 41.77 17.8591 39.3751Z" fill="url(#paint0_linear_1400_910)"/>
<path d="M45.1379 39.3741L31.5003 62.9953C37.0295 62.9961 42.4614 61.5411 47.2499 58.7766C52.0384 56.0122 56.0147 52.0358 58.779 47.2472C61.5432 42.4585 62.998 37.0265 62.9971 31.4973C62.9961 25.9681 61.5394 20.5367 58.7734 15.749H31.498L31.4946 15.7511C34.2597 15.7497 36.9764 16.4765 39.3715 17.8582C41.7666 19.24 43.7556 21.228 45.1385 23.6225C46.5214 26.0169 47.2494 28.7333 47.2494 31.4983C47.2493 34.2634 46.5209 36.9797 45.1379 39.3741Z" fill="url(#paint1_linear_1400_910)"/>
<path d="M31.499 43.9688C38.3853 43.9688 43.9678 38.3863 43.9678 31.5C43.9678 24.6137 38.3853 19.0312 31.499 19.0312C24.6127 19.0312 19.0303 24.6137 19.0303 31.5C19.0303 38.3863 24.6127 43.9688 31.499 43.9688Z" fill="#1A73E8"/>
<path d="M31.4993 15.75H58.7747C56.0107 10.9612 52.0347 6.98447 47.2464 4.21971C42.4581 1.45496 37.0262 -0.000392351 31.497 7.93419e-08C25.9678 0.000392509 20.5362 1.45651 15.7483 4.22195C10.9603 6.98738 6.98493 10.9647 4.22168 15.7538L17.8593 39.375L17.8628 39.3769C16.4791 36.9829 15.7501 34.2669 15.7492 31.5018C15.7483 28.7367 16.4756 26.0201 17.8578 23.6253C19.2399 21.2305 21.2284 19.2418 23.623 17.8594C26.0177 16.4769 28.7342 15.7494 31.4993 15.75Z" fill="url(#paint2_linear_1400_910)"/>
</g>
<defs>
<linearGradient id="paint0_linear_1400_910" x1="34.9087" y1="61.029" x2="7.63224" y2="13.7847" gradientUnits="userSpaceOnUse">
<stop stop-color="#1E8E3E"/>
<stop offset="1" stop-color="#34A853"/>
</linearGradient>
<linearGradient id="paint1_linear_1400_910" x1="26.9043" y1="63.0788" x2="54.1808" y2="15.8345" gradientUnits="userSpaceOnUse">
<stop stop-color="#FCC934"/>
<stop offset="1" stop-color="#FBBC04"/>
</linearGradient>
<linearGradient id="paint2_linear_1400_910" x1="4.22169" y1="19.6884" x2="58.7747" y2="19.6884" gradientUnits="userSpaceOnUse">
<stop stop-color="#D93025"/>
<stop offset="1" stop-color="#EA4335"/>
</linearGradient>
<clipPath id="clip0_1400_910">
<rect width="63" height="63" fill="white"/>
</clipPath>
</defs>
</svg>